Coordinates
version=1
nRows=6
nColumns=107
inDegrees=yes

Units are S.I. units (second, meters, Newtons, ...)
If the header above contains a line with 'inDegrees', this indicates whether rotational values are in degrees (yes) or radians (no).

endheader
time	sternoclavicular_r2	sternoclavicular_r3	unrotscap_r3	unrotscap_r2	acromioclavicular_r2	acromioclavicular_r3	acromioclavicular_r1	unrothum_r1	unrothum_r3	unrothum_r2	elv_angle	shoulder_elv	shoulder1_r2	shoulder_rot	elbow_flexion	pro_sup	deviation	flexion	proximal_distal_r1	proximal_distal_r3	cmc_flexion	cmc_abduction	mp_flexion	ip_flexion	mcp2_flexion	mcp2_abduction	pm2_flexion	md2_flexion	mcp3_flexion	mcp3_abduction	pm3_flexion	md3_flexion	mcp4_flexion	mcp4_abduction	pm4_flexion	md4_flexion	mcp5_flexion	mcp5_abduction	pm5_flexion	md5_flexion	bicpt_tx	bicpt_ty	bicpt_tz	bicpt2_tx	bicpt2_ty	bicpt2_tz	ptpt_tx	ptpt_ty	ptpt_tz	FCUpt_tx	FCUpt_ty	FCUpt_tz	EDCpt_tx	EDCpt_ty	EDCpt_tz	APLpt_tx	APLpt_ty	APLpt_tz	FPLpt_tx	FPLpt_ty	FPLpt_tz	FPLpt2_tx	FPLpt2_ty	FPLpt2_tz	PEC1pt2_tx	PEC1pt2_ty	PEC1pt2_tz	PEC1pt3_tx	PEC1pt3_ty	PEC1pt3_tz	PEC2pt2_tx	PEC2pt2_ty	PEC2pt2_tz	PEC2pt3_tx	PEC2pt3_ty	PEC2pt3_tz	PEC3pt2_tx	PEC3pt2_ty	PEC3pt2_tz	PEC3pt3_tx	PEC3pt3_ty	PEC3pt3_tz	DELT2pt2a_tx	DELT2pt2a_ty	DELT2pt2a_tz	DELT2pt2_tx	DELT2pt2_ty	DELT2pt2_tz	LAT1pt2_tx	LAT1pt2_ty	LAT1pt2_tz	LAT1pt3_tx	LAT1pt3_ty	LAT1pt3_tz	LAT2pt2_tx	LAT2pt2_ty	LAT2pt2_tz	LAT2pt3_tx	LAT2pt3_ty	LAT2pt3_tz	LAT3pt2_tx	LAT3pt2_ty	LAT3pt2_tz	LAT3pt3_tx	LAT3pt3_ty	LAT3pt3_tz
      1.00000000	     -0.31158363	      0.13197212	     -0.13197212	      0.31158363	     -0.06308935	      0.50986592	      0.22918122	     -0.22918122	     -0.50986592	      0.06308935	    102.17925137	     73.77019491	     -1.78336436	    -39.34785641	     31.51009803	     86.49893893	      0.35359562	      0.43295324	      0.37754121	      0.21647662	      7.56246088	     -2.71691246	    -13.49823445	     -1.82609034	      7.28272634	      7.47478012	     29.99973693	     -9.35362200	      1.31112144	      0.84258616	     18.92965985	     15.71554014	     -2.97941647	     -2.30536296	     14.31580468	     22.41716534	    -11.03898267	    -14.12373150	     17.89991430	      5.25547152	      0.00094226	     -0.03121154	     -0.00488172	      0.01418805	     -0.01875987	     -0.00099042	      0.00115870	     -0.06903272	     -0.00701795	      0.01279536	     -0.18222080	      0.00009763	     -0.01037985	      0.00360543	     -0.00077331	     -0.00059995	     -0.00023998	     -0.00119990	     -0.00076794	     -0.00230381	     -0.00129589	      0.00003565	     -0.00015729	     -0.00018875	      0.00241803	      0.00848358	      0.00590162	     -0.00790981	      0.01909830	     -0.01811470	      0.00241803	      0.00848358	      0.00590162	      0.00053279	      0.01770486	     -0.00930325	      0.00385616	      0.00471761	      0.01573892	      0.00000000	      0.00727490	      0.00000000	     -0.00692621	     -0.03200809	     -0.00599550	      0.02243753	     -0.00108713	     -0.01253216	     -0.00086065	      0.01442618	     -0.00590162	      0.00237704	      0.02081961	     -0.01721306	     -0.00577867	      0.01249996	     -0.00528687	     -0.01204914	      0.02639336	     -0.02954909	     -0.02262288	      0.01397537	     -0.00709014	     -0.01499995	      0.03049171	     -0.03692611
      1.03333333	     -0.31108031	      0.13175894	     -0.13175894	      0.31108031	     -0.06298743	      0.50904229	      0.22881101	     -0.22881101	     -0.50904229	      0.06298743	    102.27332976	     73.65102853	     -1.78500634	    -39.96881334	     31.50368982	     87.04558522	      0.35854709	      0.41123298	      0.38137488	      0.20561649	      5.66295686	     -0.38292713	    -14.71811209	     -6.46557096	      9.79750695	      7.50959897	     29.45399606	     -6.69481419	      2.67187381	      0.73337721	     19.33539907	     15.67685499	     -2.28735249	     -2.74973314	     16.04749360	     21.73471685	     -8.04784655	    -14.20322557	     17.24647979	      5.26140237	      0.00094204	     -0.03121080	     -0.00488161	      0.01413058	     -0.01875813	     -0.00089622	      0.00111831	     -0.06905883	     -0.00706199	      0.01285828	     -0.18220217	      0.00011301	     -0.01044545	      0.00363556	     -0.00079109	     -0.00056237	     -0.00022495	     -0.00112474	     -0.00071984	     -0.00215951	     -0.00121472	      0.00003862	     -0.00012376	     -0.00014851	      0.00241412	      0.00846988	      0.00589209	     -0.00789703	      0.01906745	     -0.01808543	      0.00241412	      0.00846988	      0.00589209	      0.00053192	      0.01767626	     -0.00928822	      0.00385154	      0.00470999	      0.01572718	      0.00000000	      0.00725127	      0.00000000	     -0.00691502	     -0.03195639	     -0.00597587	      0.02263258	     -0.00110972	     -0.01289689	     -0.00085926	      0.01440288	     -0.00589209	      0.00237320	      0.02078597	     -0.01718525	     -0.00576934	      0.01247977	     -0.00527833	     -0.01202968	      0.02635072	     -0.02950135	     -0.02258633	      0.01395279	     -0.00707869	     -0.01497572	      0.03044245	     -0.03686646
      1.06666667	     -0.31164462	      0.13199795	     -0.13199795	      0.31164462	     -0.06310170	      0.50996571	      0.22922608	     -0.22922608	     -0.50996571	      0.06310170	    101.92029687	     73.78463311	     -1.77884475	    -38.93640011	     31.64721260	     87.34752514	      0.37347574	      0.43764921	      0.39269042	      0.21882461	      4.24882648	     -0.05541981	    -14.60457639	    -10.08513432	     10.32471090	      7.64168402	     30.04536195	     -6.12841704	      3.05620446	      0.42548341	     19.60655979	     16.45760546	     -1.40168229	     -3.07507397	     16.61610506	     24.04184431	     -4.61759219	    -14.26914789	     15.92664867	      5.20621057	      0.00094679	     -0.03122725	     -0.00488426	      0.01409854	     -0.01879712	     -0.00084401	      0.00109600	     -0.06907326	     -0.00708631	      0.01289308	     -0.18219185	      0.00012159	     -0.01048168	      0.00365224	     -0.00080098	     -0.00060817	     -0.00024327	     -0.00121635	     -0.00077846	     -0.00233539	     -0.00131366	      0.00004166	     -0.00009619	     -0.00011543	      0.00241850	      0.00848524	      0.00590278	     -0.00791136	      0.01910204	     -0.01811824	      0.00241850	      0.00848524	      0.00590278	      0.00053289	      0.01770833	     -0.00930507	      0.00385672	      0.00471853	      0.01574034	      0.00000000	      0.00727776	      0.00000000	     -0.00692756	     -0.03201436	     -0.00599789	      0.02230545	     -0.00107221	     -0.01229233	     -0.00086082	      0.01442901	     -0.00590278	      0.00237751	      0.02082368	     -0.01721643	     -0.00577980	      0.01250241	     -0.00528790	     -0.01205150	      0.02639852	     -0.02955487	     -0.02262731	      0.01397810	     -0.00709153	     -0.01500289	      0.03049767	     -0.03693334
      1.10000000	     -0.31196098	      0.13213195	     -0.13213195	      0.31196098	     -0.06316575	      0.51048339	      0.22945877	     -0.22945877	     -0.51048339	      0.06316575	    101.69348594	     73.85953391	     -1.77488616	    -38.38089149	     31.87750044	     87.73200514	      0.37752204	      0.46755371	      0.39569458	      0.23377685	      3.61978726	     -1.01294362	    -15.88430798	    -12.51478269	      8.95308762	      7.79693361	     31.52179531	     -4.87600213	      2.26163937	      0.16457299	     19.93755109	     16.75410815	     -0.97846109	     -3.41235446	     16.12051350	     24.61618285	     -0.75169794	    -14.29653434	     12.36764076	      5.31267345	      0.00095441	     -0.03125365	     -0.00488851	      0.01405744	     -0.01885968	     -0.00077733	      0.00106759	     -0.06909163	     -0.00711728	      0.01293743	     -0.18217866	      0.00013263	     -0.01052782	      0.00367352	     -0.00081365	     -0.00066144	     -0.00026458	     -0.00132289	     -0.00084665	     -0.00253995	     -0.00142872	      0.00004243	     -0.00008322	     -0.00009986	      0.00242095	      0.00849385	      0.00590877	     -0.00791939	      0.01912143	     -0.01813663	      0.00242095	      0.00849385	      0.00590877	      0.00053343	      0.01772630	     -0.00931452	      0.00385962	      0.00472332	      0.01574769	      0.00000000	      0.00729264	      0.00000000	     -0.00693460	     -0.03204686	     -0.00601024	      0.02212351	     -0.00105210	     -0.01197095	     -0.00086170	      0.01444365	     -0.00590877	      0.00237992	      0.02084482	     -0.01723391	     -0.00578567	      0.01251510	     -0.00529327	     -0.01206373	      0.02642532	     -0.02958487	     -0.02265028	      0.01399229	     -0.00709873	     -0.01501812	      0.03052863	     -0.03697083
      1.13333333	     -0.31334088	      0.13271641	     -0.13271641	      0.31334088	     -0.06344515	      0.51274142	      0.23047374	     -0.23047374	     -0.51274142	      0.06344515	    101.11574057	     74.18623887	     -1.76480260	    -36.45560762	     32.05574505	     87.93388287	      0.38602812	      0.50061072	      0.40192257	      0.25030536	      3.81687852	     -2.59521327	    -16.74137755	    -15.19747292	      7.68962111	      7.93962251	     32.07877403	     -3.78022816	      1.94433536	     -0.19353742	     20.07906746	     17.10505170	      0.56299492	     -3.90385888	     15.17054114	     25.65271688	      5.05994666	    -14.33157658	      8.00661680	      5.36153043	      0.00096030	     -0.03127408	     -0.00489180	      0.01403573	     -0.01890810	     -0.00074224	      0.00105268	     -0.06910128	     -0.00713355	      0.01296074	     -0.18217172	      0.00013847	     -0.01055204	      0.00368472	     -0.00082033	     -0.00072207	     -0.00028883	     -0.00144414	     -0.00092425	     -0.00277274	     -0.00155967	      0.00004230	     -0.00008733	     -0.00010479	      0.00243166	      0.00853142	      0.00593490	     -0.00795442	      0.01920601	     -0.01821686	      0.00243166	      0.00853142	      0.00593490	      0.00053579	      0.01780471	     -0.00935572	      0.00387224	      0.00474422	      0.01577962	      0.00000000	      0.00735771	      0.00000000	     -0.00696527	     -0.03218861	     -0.00606430	      0.02146110	     -0.00098290	     -0.01087920	     -0.00086551	      0.01450754	     -0.00593490	      0.00239045	      0.02093702	     -0.01731014	     -0.00581126	      0.01257046	     -0.00531668	     -0.01211710	      0.02654221	     -0.02971574	     -0.02275047	      0.01405418	     -0.00713013	     -0.01508455	      0.03066367	     -0.03713437
      1.16666667	     -0.31334264	      0.13271715	     -0.13271715	      0.31334264	     -0.06344551	      0.51274430	      0.23047503	     -0.23047503	     -0.51274430	      0.06344551	    101.14630839	     74.18665458	     -1.76533611	    -36.56177751	     31.95548939	     88.00466911	      0.38272618	      0.48343060	      0.39951962	      0.24171530	      4.01539567	     -2.82372185	    -19.82776769	    -13.54168897	      7.66719593	      8.25517740	     31.03326431	      0.24956348	      1.99695177	     -0.05781319	     20.43515469	     16.02844086	      0.87619408	     -4.01344345	     18.60193995	     22.35571580	      7.87221422	    -14.35350874	      7.85001928	      5.31622399	      0.00095699	     -0.03126259	     -0.00488995	      0.01402809	     -0.01888087	     -0.00072993	      0.00104745	     -0.06910466	     -0.00713925	      0.01296891	     -0.18216928	      0.00014052	     -0.01056054	      0.00368864	     -0.00082268	     -0.00069033	     -0.00027613	     -0.00138066	     -0.00088362	     -0.00265087	     -0.00149112	      0.00004210	     -0.00009145	     -0.00010974	      0.00243168	      0.00853147	      0.00593494	     -0.00795446	      0.01920612	     -0.01821696	      0.00243168	      0.00853147	      0.00593494	      0.00053579	      0.01780481	     -0.00935577	      0.00387226	      0.00474424	      0.01577966	      0.00000000	      0.00735779	      0.00000000	     -0.00696531	     -0.03218879	     -0.00606437	      0.02149889	     -0.00098669	     -0.01093850	     -0.00086551	      0.01450762	     -0.00593494	      0.00239046	      0.02093714	     -0.01731023	     -0.00581129	      0.01257053	     -0.00531671	     -0.01211716	      0.02654236	     -0.02971590	     -0.02275059	      0.01405426	     -0.00713017	     -0.01508463	      0.03066384	     -0.03713457
